<svg width="173" height="44" viewBox="0 0 173 44" fill="none" xmlns="http://www.w3.org/2000/svg">
<path d="M25.5524 4.28104C25.5527 4.28124 25.5529 4.28154 25.5529 4.28194C25.5529 4.28234 25.5527 4.28264 25.5524 4.28284L23.2498 5.61114L19.3708 7.85124L13.1891 11.4196C13.1888 11.4198 13.1886 11.4201 13.1886 11.4205C13.1886 11.4209 13.1884 11.4212 13.1881 11.4214L10.5436 12.9473L7.067 14.9548C7.0295 14.9764 6.9833 14.9764 6.9458 14.9548L1.0061 11.5249C0.925296 11.4782 0.925296 11.3616 1.0061 11.3149L4.3614 9.37865L7.0064 7.85124L13.1872 4.28274C13.1871 4.28274 13.1873 4.28264 13.1872 4.28274C13.1876 4.28274 13.1886 4.28224 13.1886 4.28184C13.1883 4.28194 13.1886 4.28154 13.1886 4.28184L19.3101 0.747645C19.3476 0.726045 19.3939 0.726045 19.4314 0.747645L23.2498 2.95285L25.5524 4.28104Z" fill="#017FFF"/>
<path fill-rule="evenodd" clip-rule="evenodd" d="M19.3691 1.06239L13.3568 4.53308C13.3465 4.54008 13.3357 4.54639 13.3246 4.55219L7.1563 8.11349L4.5113 9.64088L1.4288 11.4198L7.00479 14.6397L13.0147 11.1705C13.0215 11.1657 13.0286 11.1612 13.036 11.157L23.0966 5.34848L24.9458 4.28178L23.0967 3.21508L19.3691 1.06239ZM19.157 0.484986C19.2883 0.409286 19.45 0.409285 19.5813 0.485085L23.3997 2.69019L25.7022 4.01839C25.7963 4.07269 25.8543 4.17308 25.8543 4.28178C25.8543 4.39048 25.7963 4.49089 25.7022 4.54519L23.3997 5.87339L13.3593 11.6702C13.3524 11.675 13.3452 11.6795 13.3379 11.6838L7.217 15.2171C7.0857 15.2929 6.9239 15.2929 6.7926 15.2171L0.852896 11.7872C0.570096 11.6239 0.570095 11.2156 0.852995 11.0523L4.2083 9.11598L6.8532 7.58868L13.0218 4.02708C13.0264 4.02408 13.0311 4.02129 13.0358 4.01849L19.157 0.484986Z" fill="black"/>
<path d="M25.3669 4.38749C25.4477 4.34089 25.5486 4.39919 25.5486 4.49249V14.3538C25.5486 14.3971 25.5255 14.4371 25.488 14.4588L23.2455 15.7536L21.9678 16.4918L19.5483 17.8887C19.4675 17.9354 19.3665 17.8771 19.3665 17.7837V15.1999C19.3665 15.1066 19.2655 15.0482 19.1846 15.0949L16.7215 16.5173L13.2449 18.5236C13.2074 18.5452 13.1843 18.5853 13.1843 18.6286V25.6284C13.1843 25.6717 13.1612 25.7117 13.1237 25.7334L7.00434 29.2665L7.00264 29.2663L7.00214 29.2652V15.0599C7.00214 15.0166 7.02534 14.9766 7.06284 14.9549L10.5393 12.9474L13.1838 11.4215L13.1843 11.4206L13.1848 11.4197L19.3665 7.85128L23.2455 5.61118L25.3669 4.38749Z" fill="#154C83"/>
<path fill-rule="evenodd" clip-rule="evenodd" d="M25.2177 4.1248C25.5005 3.9616 25.854 4.1657 25.854 4.4923V14.3536C25.854 14.5052 25.7731 14.6452 25.6418 14.721L23.3994 16.0157L22.1217 16.754L19.7021 18.1509C19.4193 18.3142 19.0657 18.1101 19.0657 17.7835V15.5146L16.8753 16.7795L13.4896 18.7334V25.6282C13.4896 25.7797 13.4088 25.9198 13.2775 25.9956L7.15806 29.5287C7.03866 29.5977 6.88796 29.5777 6.79056 29.4804C6.73346 29.4233 6.70135 29.3458 6.70135 29.265V15.0597C6.70135 14.9081 6.78215 14.768 6.91345 14.6922L10.39 12.6847L13.0143 11.1705C13.0212 11.1658 13.0283 11.1612 13.0356 11.157L19.2172 7.5887L25.2177 4.1248ZM25.2479 4.8071L19.5203 8.1135L13.3589 11.6702C13.352 11.675 13.3449 11.6795 13.3375 11.6838L10.6931 13.2096L7.30746 15.1646V28.7426L12.8835 25.5232V18.6284C12.8835 18.4768 12.9644 18.3367 13.0957 18.2609L16.5722 16.2546L19.0354 14.8322C19.3182 14.6689 19.6718 14.873 19.6718 15.1996V17.4686L21.8185 16.2292L23.0961 15.491L25.2479 14.2486V4.8071Z" fill="black"/>
<path d="M19.3083 36.3694C19.3458 36.3911 19.3689 36.4311 19.3689 36.4744V43.3341C19.3689 43.4271 19.2678 43.4861 19.187 43.4391L13.1872 39.9758C13.1869 39.9756 13.1867 39.9753 13.1867 39.9749C13.1867 39.9745 13.1865 39.9742 13.1862 39.974L7.00455 36.4056L0.823849 32.8371C0.824049 32.8371 0.823749 32.837 0.823849 32.8371C0.823349 32.8371 0.822449 32.8365 0.822449 32.836V11.63C0.822449 11.5366 0.92345 11.4783 1.00425 11.525L6.94395 14.9549C6.98145 14.9765 7.00455 15.0165 7.00455 15.0599V29.2669C7.00425 29.2673 7.00455 29.2674 7.00455 29.2669C7.00475 29.2668 7.00595 29.2671 7.00615 29.2672L13.1867 32.8357L19.3083 36.3694Z" fill="#017FFF"/>
<path fill-rule="evenodd" clip-rule="evenodd" d="M1.12581 11.9447V32.661L7.15641 36.1429L13.3381 39.7113C13.3454 39.7156 13.3526 39.7201 13.3595 39.7249L19.0662 43.0189V36.5791L13.0356 33.0979L6.87331 29.54C6.77551 29.493 6.70192 29.395 6.70192 29.2667V15.1646L1.12581 11.9447ZM0.519714 11.6297C0.519714 11.3031 0.873312 11.099 1.15621 11.2623L7.09591 14.6922C7.22711 14.768 7.30801 14.9081 7.30801 15.0596V29.0911L13.3386 32.573L19.4602 36.1067C19.5914 36.1825 19.6723 36.3226 19.6723 36.4742V43.3339C19.6723 43.6609 19.3188 43.8649 19.0359 43.7019L13.0361 40.238C13.0288 40.2338 13.0216 40.2293 13.0147 40.2245L6.85341 36.6678L0.683914 33.1058C0.586414 33.0551 0.519714 32.9532 0.519714 32.8357V11.6297ZM6.79161 29.0528C6.86141 28.983 6.94941 28.9569 7.03281 28.965C6.94551 28.9574 6.85661 28.9878 6.79161 29.0528Z" fill="black"/>
<path d="M37.9149 18.5598C37.9154 18.5598 37.9158 18.5602 37.9158 18.5607V32.767C37.9158 32.8103 37.8927 32.8503 37.8552 32.8719L31.7337 36.4056L25.5529 39.9742C25.553 39.9742 25.5528 39.9743 25.5529 39.9742C25.5524 39.9742 25.5515 39.9747 25.5515 39.9751C25.5518 39.9749 25.5515 39.9754 25.5515 39.9751L23.2483 41.3053L19.5512 43.4391C19.4703 43.4861 19.3693 43.4271 19.3693 43.3341V36.4756C19.3693 36.4323 19.3924 36.3923 19.4299 36.3706L23.2483 34.1655L25.5515 32.837L31.6731 29.302C31.7106 29.2804 31.7337 29.2404 31.7337 29.1971V22.1985C31.7337 22.1552 31.7568 22.1151 31.7943 22.0935L37.9149 18.5598C37.9147 18.5598 37.915 18.5597 37.9149 18.5598Z" fill="#017FFF"/>
<path fill-rule="evenodd" clip-rule="evenodd" d="M37.9152 18.2566C38.0831 18.2566 38.2192 18.3927 38.2192 18.5606V32.7668C38.2192 32.9184 38.1383 33.0585 38.007 33.1343L31.8855 36.668L25.717 40.2294C25.7124 40.2324 25.7077 40.2353 25.703 40.2381L23.4002 41.5676L19.703 43.702C19.4201 43.865 19.0666 43.661 19.0666 43.334V36.4755C19.0666 36.3239 19.1475 36.1839 19.2787 36.1081L31.4309 29.092V22.1983C31.4309 22.0468 31.5118 21.9067 31.6431 21.8309L37.7632 18.2974C37.8094 18.2707 37.8618 18.2566 37.9152 18.2566ZM37.6131 19.0839L32.037 22.3033V29.197C32.037 29.3485 31.9562 29.4886 31.8249 29.5644L23.4002 34.4278L19.6727 36.5805V43.019L23.0971 41.0427L25.382 39.7235C25.3923 39.7165 25.403 39.7102 25.4141 39.7045L31.5824 36.1431L37.6131 32.6619V19.0839Z" fill="black"/>
<path d="M37.731 18.4545C37.8118 18.5012 37.8118 18.6178 37.731 18.6644L31.7925 22.0932C31.7549 22.1148 31.7087 22.1148 31.6712 22.0932L25.7327 18.6644C25.6519 18.6178 25.6519 18.5012 25.7327 18.4545L31.6712 15.0246C31.7087 15.0029 31.755 15.0029 31.7925 15.0246L37.731 18.4545Z" fill="#017FFF"/>
<path fill-rule="evenodd" clip-rule="evenodd" d="M31.52 14.7624C31.6513 14.6866 31.813 14.6866 31.9443 14.7624L37.8829 18.1923C38.1657 18.3556 38.1657 18.7638 37.8828 18.9271L31.9443 22.3558C31.813 22.4316 31.6513 22.4316 31.52 22.3558L25.5815 18.9271C25.2987 18.7638 25.2986 18.3556 25.5814 18.1923L31.52 14.7624ZM31.7322 15.3398L26.1572 18.5596L31.7322 21.7784L37.3071 18.5596L31.7322 15.3398Z" fill="black"/>
<path d="M31.6745 22.0935C31.712 22.1151 31.7351 22.1552 31.7351 22.1985V29.0571C31.7351 29.1504 31.6341 29.2087 31.5533 29.1621L25.6135 25.7322C25.576 25.7105 25.5529 25.6705 25.5529 25.6272V18.5607C25.5529 18.5602 25.5534 18.5598 25.5539 18.5598C25.5537 18.5597 25.5541 18.5598 25.5539 18.5598L31.6745 22.0935Z" fill="#154C83"/>
<path fill-rule="evenodd" clip-rule="evenodd" d="M25.8524 19.0839V25.5221L31.4285 28.742V22.3033L25.8524 19.0839ZM25.2463 18.5606C25.2463 18.3927 25.3824 18.2566 25.5503 18.2566C25.6037 18.2566 25.6561 18.2707 25.7023 18.2974L31.8224 21.8309C31.9537 21.9067 32.0345 22.0468 32.0345 22.1983V29.057C32.0345 29.3836 31.681 29.5877 31.3981 29.4244L25.4584 25.9945C25.3271 25.9187 25.2463 25.7786 25.2463 25.6271V18.5606Z" fill="black"/>
<path d="M31.5535 29.162C31.6343 29.2087 31.6343 29.3253 31.5535 29.372L25.5532 32.8369L23.25 34.1655L19.3718 36.4051C19.3718 36.4055 19.3714 36.4053 19.3718 36.4051C19.3718 36.4049 19.3709 36.4043 19.3707 36.4042L13.1888 32.8357L7.18969 29.372C7.10889 29.3253 7.10889 29.2087 7.18969 29.162L13.1282 25.7333C13.1657 25.7117 13.2119 25.7117 13.2494 25.7333L19.3104 29.232C19.3479 29.2537 19.3941 29.2537 19.4316 29.232L23.25 27.0269L25.4926 25.7321C25.5301 25.7104 25.5763 25.7104 25.6138 25.7321L31.5535 29.162Z" fill="#154C83"/>
<path fill-rule="evenodd" clip-rule="evenodd" d="M25.5535 26.0468L23.4019 27.2891L19.5835 29.4943C19.4522 29.5701 19.2905 29.5701 19.1592 29.4943L13.1892 26.0481L7.61426 29.2668L13.3407 32.573L19.3723 36.0549L23.0989 33.9028L25.4019 32.5743L31.1296 29.2668L25.5535 26.0468ZM19.6744 36.4045C19.6744 36.3307 19.6475 36.2606 19.6008 36.2063C19.646 36.2581 19.6744 36.3265 19.6744 36.4045ZM25.3413 25.4694C25.4726 25.3936 25.6344 25.3936 25.7656 25.4694L31.7054 28.8994C31.9882 29.0627 31.9882 29.471 31.7054 29.6343L25.705 33.0991L23.4019 34.4278L19.5237 36.6673C19.4165 36.7292 19.2952 36.7174 19.2047 36.6579L13.0376 33.0979L7.03845 29.6343C6.75565 29.471 6.75565 29.0627 7.03845 28.8994L12.977 25.4707C13.1083 25.395 13.27 25.3949 13.4013 25.4707L19.3713 28.9169L23.0988 26.7642L25.3413 25.4694Z" fill="black"/>
<path d="M19.1858 15.0948C19.2666 15.0482 19.3677 15.1065 19.3677 15.1998V17.9682C19.3677 17.9839 19.3592 17.9984 19.3454 18.006C19.3322 18.0134 19.316 18.0132 19.3028 18.0056L16.9046 16.6221C16.8238 16.5755 16.8237 16.4588 16.9045 16.4122L19.1858 15.0948Z" fill="#017FFF"/>
<path fill-rule="evenodd" clip-rule="evenodd" d="M19.0346 14.8324C19.3174 14.6691 19.671 14.8732 19.671 15.1998V17.9682C19.671 18.094 19.6028 18.2099 19.4929 18.2709C19.3866 18.33 19.2571 18.329 19.1517 18.2682L16.7535 16.8847C16.4705 16.7214 16.4704 16.3131 16.7533 16.1498L19.0346 14.8324ZM19.0649 15.5148L17.3292 16.5171L19.0649 17.5184V15.5148Z" fill="black"/>
<path d="M25.8021 4.55704C25.8025 4.55724 25.8027 4.55754 25.8027 4.55794C25.8027 4.55834 25.8025 4.55864 25.8021 4.55884L23.5156 5.87784L19.6637 8.10224L13.5253 11.6457C13.525 11.6458 13.5248 11.6462 13.5248 11.6466C13.5248 11.6469 13.5246 11.6473 13.5243 11.6475L10.8983 13.1626L7.44609 15.1561C7.40889 15.1776 7.36299 15.1776 7.32569 15.1561L1.4276 11.7502C1.3473 11.7039 1.3473 11.5881 1.4276 11.5417L4.75939 9.61894L7.3859 8.10224L13.5234 4.55864C13.5232 4.55864 13.5235 4.55864 13.5234 4.55864C13.5238 4.55864 13.5248 4.55824 13.5248 4.55784C13.5246 4.55794 13.5248 4.55754 13.5248 4.55784L19.6036 1.04834C19.6408 1.02684 19.6867 1.02684 19.7239 1.04844L23.5156 3.23804L25.8021 4.55704Z" fill="#017FFF"/>
<path fill-rule="evenodd" clip-rule="evenodd" d="M19.6619 1.36123L13.6916 4.80753C13.6814 4.81453 13.6708 4.82083 13.6597 4.82653L7.53456 8.36293L4.90806 9.87963L1.84706 11.6461L7.38406 14.8435L13.3519 11.3985C13.3588 11.3938 13.3658 11.3893 13.3731 11.3851L23.3633 5.61733L25.1996 4.55803L23.3634 3.49883L19.6619 1.36123ZM19.4513 0.787833C19.5817 0.712633 19.7423 0.712632 19.8726 0.787932L23.6643 2.97753L25.9507 4.29643C26.0442 4.35043 26.1018 4.45013 26.1018 4.55803C26.1018 4.66593 26.0442 4.76573 25.9507 4.81963L23.6643 6.13853L13.6942 11.8947C13.6873 11.8995 13.6802 11.904 13.6729 11.9082L7.59476 15.4168C7.46436 15.4921 7.30376 15.4921 7.17336 15.4168L1.27526 12.0109C0.994362 11.8487 0.994461 11.4433 1.27536 11.2812L4.60706 9.35843L7.23356 7.84173L13.359 4.30513C13.3636 4.30223 13.3682 4.29933 13.373 4.29663L19.4513 0.787833Z" fill="black"/>
<path d="M25.6211 4.66277C25.7013 4.61647 25.8017 4.67438 25.8017 4.76708V14.5594C25.8017 14.6024 25.7787 14.6421 25.7414 14.6637L23.5146 15.9494L22.2459 16.6824L19.8433 18.0696C19.763 18.1159 19.6628 18.058 19.6628 17.9653V15.3995C19.6628 15.3069 19.5624 15.249 19.4821 15.2953L17.0362 16.7077L13.584 18.7C13.5467 18.7215 13.5238 18.7613 13.5238 18.8043V25.7551C13.5238 25.7981 13.5008 25.8379 13.4636 25.8594L7.38705 29.3678L7.38535 29.3675L7.38495 29.3665V15.2605C7.38495 15.2175 7.40785 15.1778 7.44505 15.1563L10.8973 13.1628L13.5233 11.6476L13.5238 11.6467L13.5243 11.6458L19.6628 8.10238L23.5146 5.87787L25.6211 4.66277Z" fill="#154C83"/>
<path fill-rule="evenodd" clip-rule="evenodd" d="M25.471 4.4022C25.7518 4.2402 26.1028 4.4429 26.1028 4.7671V14.5595C26.1028 14.71 26.0225 14.8491 25.8921 14.9243L23.6654 16.21L22.3967 16.943L19.994 18.3302C19.7131 18.4924 19.362 18.2897 19.362 17.9654V15.7124L17.1869 16.9684L13.825 18.9086V25.7552C13.825 25.9057 13.7447 26.0448 13.6143 26.12L7.53767 29.6284C7.41917 29.6969 7.26947 29.6771 7.17277 29.5804C7.11607 29.5237 7.08417 29.4468 7.08417 29.3666V15.2606C7.08417 15.1101 7.16447 14.971 7.29477 14.8957L10.747 12.9022L13.3529 11.3987C13.3598 11.3939 13.3668 11.3894 13.3741 11.3852L19.5125 7.8418L25.471 4.4022ZM25.5009 5.0797L19.8134 8.363L13.6952 11.8948C13.6883 11.8996 13.6812 11.9041 13.6739 11.9083L11.048 13.4234L7.68597 15.3648V28.8478L13.2231 25.6509V18.8043C13.2231 18.6538 13.3034 18.5147 13.4338 18.4394L16.886 16.4472L19.3319 15.0348C19.6128 14.8726 19.9639 15.0753 19.9639 15.3996V17.6527L22.0956 16.4219L23.3643 15.6889L25.5009 14.4552V5.0797Z" fill="black"/>
<path d="M19.6029 36.4209C19.6401 36.4424 19.663 36.4821 19.663 36.5251V43.3369C19.663 43.4299 19.5627 43.4879 19.4825 43.4409L13.5246 40.002C13.5243 40.0019 13.5241 40.0015 13.5241 40.0011C13.5241 40.0008 13.5239 40.0004 13.5236 40.0002L7.38518 36.4568L1.24768 32.9132C1.24788 32.9132 1.24758 32.9131 1.24768 32.9132C1.24718 32.9132 1.24628 32.9127 1.24628 32.9121V11.8545C1.24628 11.7618 1.34658 11.7039 1.42688 11.7502L7.32498 15.1561C7.36228 15.1776 7.38518 15.2174 7.38518 15.2604V29.3681C7.38488 29.3684 7.38518 29.3686 7.38518 29.3681C7.38538 29.3679 7.38658 29.3683 7.38678 29.3684L13.5241 32.9119L19.6029 36.4209Z" fill="#017FFF"/>
<path fill-rule="evenodd" clip-rule="evenodd" d="M1.54739 12.1673V32.7387L7.5358 36.1963L13.6742 39.7397C13.6815 39.7439 13.6886 39.7484 13.6954 39.7532L19.3623 43.024V36.6294L13.3738 33.1726L7.25469 29.6396C7.15749 29.5928 7.0844 29.4956 7.0844 29.3682V15.3647L1.54739 12.1673ZM0.945496 11.8545C0.945496 11.5302 1.2966 11.3275 1.5775 11.4897L7.47569 14.8956C7.60599 14.9709 7.68629 15.1099 7.68629 15.2605V29.1938L13.6747 32.6513L19.7534 36.1603C19.8838 36.2356 19.9641 36.3747 19.9641 36.5252V43.337C19.9641 43.661 19.6131 43.864 19.3322 43.702L13.3743 40.2627C13.367 40.2585 13.36 40.254 13.3531 40.2493L7.23489 36.7175L1.10849 33.1803C1.01169 33.1301 0.945496 33.0289 0.945496 32.9122V11.8545ZM7.17349 29.1557C7.24289 29.0864 7.33019 29.0605 7.41299 29.0686C7.32629 29.061 7.23809 29.0912 7.17349 29.1557Z" fill="black"/>
<path d="M38.08 18.7358C38.0805 18.7358 38.0809 18.7362 38.0809 18.7368V32.8436C38.0809 32.8866 38.058 32.9263 38.0207 32.9478L31.942 36.4568L25.8046 40.0004C25.8048 40.0004 25.8045 40.0005 25.8046 40.0004C25.8042 40.0004 25.8031 40.0009 25.8031 40.0013C25.8033 40.0011 25.8031 40.0016 25.8031 40.0013L23.516 41.3222L19.8447 43.4409C19.7645 43.4879 19.6642 43.4299 19.6642 43.3369V36.5263C19.6642 36.4833 19.6871 36.4436 19.7243 36.4221L23.516 34.2324L25.8031 32.9131L31.8819 29.4029C31.9192 29.3814 31.942 29.3417 31.942 29.2987V22.349C31.942 22.306 31.965 22.2663 32.0023 22.2448L38.08 18.7358C38.0798 18.7358 38.0801 18.7357 38.08 18.7358Z" fill="#017FFF"/>
<path fill-rule="evenodd" clip-rule="evenodd" d="M38.0783 18.4351C38.245 18.4351 38.3801 18.5702 38.3801 18.7369V32.8438C38.3801 32.9943 38.2998 33.1334 38.1695 33.2087L32.0908 36.7176L25.9654 40.2542C25.9609 40.2572 25.9562 40.26 25.9515 40.2628L23.6648 41.583L19.9934 43.7021C19.7126 43.8641 19.3615 43.6611 19.3615 43.3371V36.5265C19.3615 36.376 19.4418 36.2369 19.5721 36.1617L31.6394 29.1946V22.3492C31.6394 22.1987 31.7197 22.0596 31.85 21.9844L37.9273 18.4755C37.9732 18.449 38.0252 18.4351 38.0783 18.4351ZM37.7783 19.2565L32.2412 22.4535V29.2989C32.2412 29.4494 32.1609 29.5884 32.0306 29.6637L23.6648 34.4931L19.9634 36.6307V43.0241L23.3639 41.0618L25.6327 39.7518C25.6429 39.7449 25.6536 39.7385 25.6646 39.7329L31.7898 36.1964L37.7783 32.7395V19.2565Z" fill="black"/>
<path d="M37.8967 18.6315C37.9769 18.6778 37.9769 18.7936 37.8966 18.8399L31.9996 22.2447C31.9624 22.2662 31.9165 22.2662 31.8793 22.2447L25.9823 18.8399C25.902 18.7936 25.902 18.6778 25.9822 18.6315L31.8792 15.2256C31.9165 15.2041 31.9624 15.2041 31.9997 15.2256L37.8967 18.6315Z" fill="#017FFF"/>
<path fill-rule="evenodd" clip-rule="evenodd" d="M31.7269 14.9652C31.8573 14.8899 32.018 14.8899 32.1484 14.9652L38.0454 18.3711C38.3262 18.5333 38.3261 18.9386 38.0453 19.1008L32.1483 22.5055C32.0179 22.5808 31.8573 22.5808 31.727 22.5055L25.83 19.1008C25.5491 18.9386 25.5491 18.5333 25.8299 18.3711L31.7269 14.9652ZM31.9376 15.5385L26.4017 18.7359L31.9376 21.9322L37.4736 18.7359L31.9376 15.5385Z" fill="black"/>
<path d="M31.8817 22.2448C31.9189 22.2663 31.9418 22.306 31.9418 22.349V29.1597C31.9418 29.2523 31.8415 29.3102 31.7613 29.2639L25.8631 25.858C25.8259 25.8365 25.8029 25.7968 25.8029 25.7538V18.7367C25.8029 18.7362 25.8034 18.7358 25.8039 18.7358C25.8037 18.7357 25.804 18.7358 25.8039 18.7358L31.8817 22.2448Z" fill="#154C83"/>
<path fill-rule="evenodd" clip-rule="evenodd" d="M26.1001 19.2565V25.6497L31.6372 28.8471V22.4535L26.1001 19.2565ZM25.4982 18.7369C25.4982 18.5702 25.6334 18.4351 25.8001 18.4351C25.8531 18.4351 25.9052 18.449 25.9511 18.4755L32.0284 21.9844C32.1587 22.0596 32.239 22.1987 32.239 22.3492V29.1599C32.239 29.4842 31.8879 29.6869 31.607 29.5247L25.7089 26.1188C25.5785 26.0435 25.4982 25.9044 25.4982 25.7539V18.7369Z" fill="black"/>
<path d="M31.7616 29.2641C31.8418 29.3104 31.8418 29.4263 31.7616 29.4726L25.8032 32.9133L23.5161 34.2325L19.6651 36.4565C19.6651 36.4569 19.6647 36.4567 19.6651 36.4565C19.6651 36.4563 19.6642 36.4557 19.664 36.4556L13.5254 32.9121L7.56822 29.4726C7.48792 29.4263 7.48792 29.3104 7.56822 29.2641L13.4652 25.8594C13.5024 25.8379 13.5483 25.8379 13.5855 25.8594L19.6041 29.3336C19.6413 29.3551 19.6872 29.3551 19.7245 29.3336L23.5161 27.1439L25.743 25.8582C25.7803 25.8367 25.8261 25.8367 25.8634 25.8582L31.7616 29.2641Z" fill="#154C83"/>
<path fill-rule="evenodd" clip-rule="evenodd" d="M25.8033 26.1708L23.6668 27.4044L19.8751 29.5941C19.7448 29.6694 19.5841 29.6694 19.4538 29.5941L13.5255 26.172L7.98959 29.3682L13.6759 32.6513L19.6654 36.1088L23.3659 33.9718L25.6529 32.6526L31.3405 29.3682L25.8033 26.1708ZM19.9654 36.456C19.9654 36.3826 19.9387 36.3131 19.8923 36.2592C19.9372 36.3107 19.9654 36.3785 19.9654 36.456ZM25.5927 25.5975C25.723 25.5222 25.8837 25.5222 26.014 25.5975L31.9122 29.0034C32.1931 29.1656 32.1931 29.5709 31.9122 29.7331L25.9538 33.1738L23.6668 34.493L19.8157 36.717C19.7093 36.7785 19.5888 36.7667 19.499 36.7077L13.3751 33.1726L7.41789 29.7331C7.13699 29.5709 7.13699 29.1655 7.41789 29.0034L13.3149 25.5987C13.4452 25.5234 13.6058 25.5234 13.7361 25.5986L19.6644 29.0208L23.3658 26.8832L25.5927 25.5975Z" fill="black"/>
<path d="M19.4819 15.2951C19.5622 15.2487 19.6625 15.3067 19.6625 15.3993V18.1483C19.6625 18.1639 19.6541 18.1783 19.6404 18.1859C19.6272 18.1932 19.6112 18.1931 19.5981 18.1855L17.2167 16.8117C17.1364 16.7654 17.1364 16.6495 17.2166 16.6032L19.4819 15.2951Z" fill="#017FFF"/>
<path fill-rule="evenodd" clip-rule="evenodd" d="M19.3316 15.0346C19.6125 14.8724 19.9636 15.0751 19.9636 15.3995V18.1485C19.9636 18.2734 19.8959 18.3884 19.7867 18.4491C19.6811 18.5077 19.5525 18.5067 19.4479 18.4463L17.0664 17.0725C16.7855 16.9104 16.7854 16.5049 17.0663 16.3427L19.3316 15.0346ZM19.3617 15.7122L17.6382 16.7075L19.3617 17.7018V15.7122Z" fill="black"/>
<path d="M163.557 34.9845C162.073 34.9845 160.623 34.7882 159.205 34.3956C157.787 33.9812 156.664 33.4686 155.835 32.8579V13.4564C155.835 13.0419 155.922 12.7366 156.097 12.5403C156.293 12.344 156.61 12.2458 157.046 12.2458H158.714C159.151 12.2458 159.467 12.344 159.663 12.5403C159.86 12.7366 159.958 13.0419 159.958 13.4564V19.8363C160.525 19.3346 161.266 18.9529 162.182 18.6912C163.099 18.4294 164.08 18.2986 165.127 18.2986C167.592 18.2986 169.489 18.9747 170.82 20.3271C172.15 21.6794 172.816 23.577 172.816 26.0199C172.816 28.8555 172.03 31.0584 170.46 32.6289C168.911 34.1993 166.61 34.9845 163.557 34.9845ZM163.36 32.0072C165.171 32.0072 166.501 31.5274 167.352 30.5677C168.224 29.5861 168.661 28.1029 168.661 26.1181C168.661 24.4604 168.312 23.2499 167.614 22.4865C166.937 21.7013 165.792 21.3086 164.178 21.3086C163.066 21.3086 162.084 21.5921 161.234 22.1592C160.383 22.7045 159.958 23.5116 159.958 24.5804V31.222C160.328 31.462 160.83 31.6583 161.463 31.8109C162.095 31.9418 162.728 32.0072 163.36 32.0072Z" fill="white"/>
<path d="M142.051 34.9846C139.913 34.9846 138.212 34.3411 136.947 33.0542C135.682 31.7455 135.049 29.9133 135.049 27.5577C135.049 25.7255 135.453 24.1114 136.26 22.7155C137.067 21.2977 138.212 20.2071 139.695 19.4437C141.2 18.6803 142.945 18.2986 144.93 18.2986C147.7 18.2986 150.045 18.9529 151.964 20.2616V33.6104C151.964 33.9376 151.888 34.1666 151.735 34.2975C151.604 34.4284 151.364 34.4938 151.015 34.4938H149.216C148.976 34.4938 148.791 34.4502 148.66 34.3629C148.551 34.2539 148.474 34.0903 148.431 33.8722L148.169 32.5962C147.493 33.425 146.653 34.0357 145.65 34.4284C144.668 34.7992 143.468 34.9846 142.051 34.9846ZM143.621 32.0073C144.777 32.0073 145.791 31.6692 146.664 30.993C147.558 30.3168 148.005 29.4226 148.005 28.3102V21.9302C147.547 21.6903 147.078 21.5267 146.598 21.4395C146.14 21.3304 145.573 21.2759 144.897 21.2759C143.174 21.2759 141.789 21.8212 140.742 22.9118C139.695 24.0023 139.172 25.5074 139.172 27.4268C139.172 28.9972 139.531 30.1533 140.251 30.8949C140.993 31.6365 142.116 32.0073 143.621 32.0073Z" fill="white"/>
<path d="M128.865 34.4938C128.429 34.4938 128.113 34.3956 127.916 34.1993C127.742 34.003 127.655 33.7086 127.655 33.316V13.4564C127.655 13.0419 127.742 12.7366 127.916 12.5403C128.113 12.344 128.429 12.2458 128.865 12.2458H130.599C131.035 12.2458 131.352 12.344 131.548 12.5403C131.744 12.7366 131.842 13.0419 131.842 13.4564V33.316C131.842 33.7086 131.744 34.003 131.548 34.1993C131.373 34.3956 131.057 34.4938 130.599 34.4938H128.865Z" fill="white"/>
<path d="M116.574 34.9846C114.873 34.9846 113.335 34.701 111.961 34.1339C110.587 33.545 109.485 32.6507 108.656 31.4511C107.849 30.2296 107.446 28.7137 107.446 26.9033C107.446 24.0896 108.198 21.952 109.703 20.4907C111.208 19.0293 113.346 18.2986 116.116 18.2986C118.864 18.2986 120.936 19.0075 122.332 20.4252C123.75 21.843 124.459 23.8933 124.459 26.5761C124.459 27.3395 124.11 27.7213 123.412 27.7213H111.404C111.404 29.1608 111.906 30.2732 112.909 31.0584C113.913 31.8219 115.309 32.2036 117.097 32.2036C118.82 32.2036 120.369 31.811 121.743 31.0257C121.896 30.9385 122.016 30.8949 122.103 30.8949C122.256 30.8949 122.376 30.993 122.463 31.1893L123.248 32.5962C123.314 32.727 123.346 32.847 123.346 32.9561C123.346 33.1088 123.248 33.2505 123.052 33.3814C122.158 33.9267 121.187 34.3302 120.14 34.5919C119.115 34.8537 117.926 34.9846 116.574 34.9846ZM120.664 25.3001C120.664 23.9478 120.282 22.8899 119.518 22.1265C118.777 21.3631 117.654 20.9814 116.148 20.9814C114.622 20.9814 113.444 21.374 112.615 22.1593C111.808 22.9445 111.404 23.9914 111.404 25.3001H120.664Z" fill="white"/>
<path d="M96.5419 34.9845C90.3479 34.9845 87.2499 32.1926 87.2499 26.6088C87.2499 24.973 87.5669 23.5334 88.1989 22.2901C88.8319 21.025 89.7369 20.0435 90.9149 19.3455C92.1139 18.6476 93.5209 18.2986 95.1349 18.2986C97.4249 18.2986 99.0829 18.8111 100.108 19.8363V13.4564C100.108 13.0419 100.206 12.7366 100.403 12.5403C100.599 12.344 100.915 12.2458 101.352 12.2458H102.987C103.424 12.2458 103.74 12.344 103.936 12.5403C104.133 12.7366 104.231 13.0419 104.231 13.4564V32.8579C103.402 33.4686 102.289 33.9812 100.894 34.3956C99.4979 34.7882 98.0469 34.9845 96.5419 34.9845ZM96.6399 32.0072C98.1019 32.0072 99.2579 31.7455 100.108 31.222V24.5476C100.108 23.4789 99.7379 22.6718 98.9959 22.1265C98.2539 21.5812 97.2949 21.3086 96.1169 21.3086C94.5249 21.3086 93.3359 21.7884 92.5509 22.7482C91.7649 23.7079 91.3729 25.0275 91.3729 26.707C91.3729 28.5828 91.8089 29.9351 92.6809 30.764C93.5539 31.5928 94.8739 32.0072 96.6399 32.0072Z" fill="white"/>
<path d="M76.2789 34.9846C73.4429 34.9846 71.2509 34.243 69.7029 32.7598C68.1759 31.2548 67.4119 29.2154 67.4119 26.6416C67.4119 24.0678 68.1759 22.0393 69.7029 20.5561C71.2509 19.0511 73.4429 18.2986 76.2789 18.2986C79.1139 18.2986 81.3059 19.0511 82.8549 20.5561C84.4039 22.0393 85.1779 24.0678 85.1779 26.6416C85.1779 29.2154 84.4039 31.2548 82.8549 32.7598C81.3059 34.243 79.1139 34.9846 76.2789 34.9846ZM76.2789 31.9091C77.8279 31.9091 79.0049 31.462 79.8119 30.5677C80.6189 29.6734 81.0229 28.3647 81.0229 26.6416C81.0229 24.9403 80.6189 23.6534 79.8119 22.7809C79.0049 21.8866 77.8279 21.4395 76.2789 21.4395C74.7519 21.4395 73.5739 21.8866 72.7449 22.7809C71.9379 23.6534 71.5349 24.9403 71.5349 26.6416C71.5349 28.3429 71.9379 29.6516 72.7449 30.5677C73.5739 31.462 74.7519 31.9091 76.2789 31.9091Z" fill="white"/>
<path d="M50.6819 34.4938C50.2449 34.4938 49.9289 34.3956 49.7329 34.1993C49.5579 34.003 49.4709 33.7086 49.4709 33.316V13.4564C49.4709 13.0419 49.5579 12.7366 49.7329 12.5403C49.9289 12.344 50.2449 12.2458 50.6819 12.2458H52.4159C52.8519 12.2458 53.1679 12.344 53.3639 12.5403C53.5609 12.7366 53.6589 13.0419 53.6589 13.4564V33.316C53.6589 33.7086 53.5609 34.003 53.3639 34.1993C53.1899 34.3956 52.8739 34.4938 52.4159 34.4938H50.6819ZM63.4739 34.4938C63.2339 34.4938 63.0489 34.472 62.9179 34.4284C62.8089 34.3847 62.6889 34.2866 62.5579 34.1339L54.6729 24.6458C54.4769 24.4059 54.3349 24.1986 54.2479 24.0242C54.1609 23.8497 54.1169 23.6206 54.1169 23.3371C54.1169 23.0535 54.1499 22.8354 54.2149 22.6827C54.3019 22.53 54.4549 22.3119 54.6729 22.0285L62.3619 12.6384C62.4929 12.4639 62.6229 12.3549 62.7539 12.3112C62.8849 12.2676 63.0919 12.2458 63.3759 12.2458H66.3859C66.5389 12.2458 66.6589 12.2894 66.7459 12.3767C66.8329 12.4639 66.8769 12.573 66.8769 12.7039C66.8769 12.8784 66.8109 13.031 66.6799 13.1619L58.2069 23.3371L66.8769 33.5777C67.0079 33.7086 67.0729 33.8612 67.0729 34.0357C67.0729 34.1666 67.0289 34.2757 66.9419 34.3629C66.8549 34.4502 66.7349 34.4938 66.5819 34.4938H63.4739Z" fill="white"/>
</svg>